<svg width="20" height="20" viewBox="0 0 20 20" fill="none" xmlns="http://www.w3.org/2000/svg">
<path d="M9.69367 13.407C9.12184 13.407 8.65887 13.8836 8.65887 14.4555C8.65887 15.0137 9.1082 15.5039 9.69367 15.5039C10.2791 15.5039 10.7421 15.0137 10.7421 14.4555C10.7421 13.8836 10.2656 13.407 9.69367 13.407Z" fill="#5C90BF"/>
<path d="M9.8707 5.46883C8.03254 5.46883 7.18836 6.55808 7.18836 7.29336C7.18836 7.82441 7.63766 8.06949 8.00531 8.06949C8.74055 8.06949 8.44102 7.02105 9.82984 7.02105C10.5107 7.02105 11.0553 7.32062 11.0553 7.94695C11.0553 8.68226 10.2928 9.10433 9.84348 9.48558C9.44863 9.82597 8.93121 10.3843 8.93121 11.5552C8.93121 12.2632 9.1218 12.4675 9.68008 12.4675C10.3473 12.4675 10.4834 12.168 10.4834 11.9093C10.4834 11.2012 10.4971 10.7927 11.2459 10.2073C11.6136 9.92133 12.7709 8.99543 12.7709 7.71551C12.7709 6.43558 11.6136 5.46883 9.8707 5.46883Z" fill="#5C90BF"/>
<path d="M10 0C4.47328 0 0 4.47254 0 10V19.2188C0 19.6502 0.349766 20 0.78125 20H10C15.5267 20 20 15.5275 20 10C20 4.47328 15.5275 0 10 0ZM10 18.4375H1.5625V10C1.5625 5.33684 5.33621 1.5625 10 1.5625C14.6632 1.5625 18.4375 5.33621 18.4375 10C18.4375 14.6632 14.6638 18.4375 10 18.4375Z" fill="#5C90BF"/>
</svg>
